<?xml version="1.0" encoding="UTF-8" standalone="no"?>
<!-- Created with Inkscape (http://www.inkscape.org/) -->

<svg
   width="256mm"
   height="256mm"
   viewBox="0 0 256 256"
   version="1.1"
   id="svg1"
   xml:space="preserve"
   inkscape:version="1.4.4 (dcaf3e7, 2026-05-05)"
   sodipodi:docname="arcticgizmo.svg"
   inkscape:export-filename="arcticgizmo.png"
   inkscape:export-xdpi="96"
   inkscape:export-ydpi="96"
   xmlns:inkscape="http://www.inkscape.org/namespaces/inkscape"
   xmlns:sodipodi="http://sodipodi.sourceforge.net/DTD/sodipodi-0.dtd"
   xmlns="http://www.w3.org/2000/svg"
   xmlns:svg="http://www.w3.org/2000/svg"><sodipodi:namedview
     id="namedview1"
     pagecolor="#ffffff"
     bordercolor="#000000"
     borderopacity="0.25"
     inkscape:showpageshadow="2"
     inkscape:pageopacity="0.0"
     inkscape:pagecheckerboard="0"
     inkscape:deskcolor="#d1d1d1"
     inkscape:document-units="mm"
     inkscape:zoom="0.71891835"
     inkscape:cx="601.59822"
     inkscape:cy="426.33492"
     inkscape:window-width="1920"
     inkscape:window-height="1009"
     inkscape:window-x="-8"
     inkscape:window-y="-8"
     inkscape:window-maximized="1"
     inkscape:current-layer="layer1" /><defs
     id="defs1"><inkscape:path-effect
       effect="fillet_chamfer"
       id="path-effect34"
       is_visible="true"
       lpeversion="1"
       nodesatellites_param="F,0,0,1,0,13.530635,0,1 @ F,0,0,1,0,13.530635,0,1 @ F,0,0,1,0,13.530635,0,1 @ F,0,0,1,0,13.530635,0,1 @ F,0,0,1,0,13.530635,0,1 @ F,0,0,1,0,13.530635,0,1"
       radius="3"
       unit="pc"
       method="auto"
       mode="F"
       chamfer_steps="1"
       flexible="false"
       use_knot_distance="true"
       apply_no_radius="true"
       apply_with_radius="true"
       only_selected="false"
       hide_knots="false" /><inkscape:path-effect
       effect="fillet_chamfer"
       id="path-effect21"
       is_visible="true"
       lpeversion="1"
       nodesatellites_param="F,0,0,1,0,13.530635,0,1 @ F,0,0,1,0,13.530635,0,1 @ F,0,0,1,0,13.530635,0,1 @ F,0,0,1,0,13.530635,0,1 @ F,0,0,1,0,13.530635,0,1 @ F,0,0,1,0,13.530635,0,1"
       radius="3"
       unit="pc"
       method="auto"
       mode="F"
       chamfer_steps="1"
       flexible="false"
       use_knot_distance="true"
       apply_no_radius="true"
       apply_with_radius="true"
       only_selected="false"
       hide_knots="false" /><clipPath
       clipPathUnits="userSpaceOnUse"
       id="clipPath34"><path
         sodipodi:type="star"
         style="display:inline;opacity:1;mix-blend-mode:normal;fill:none;fill-opacity:1;stroke:none;stroke-width:0.132292"
         id="path34"
         inkscape:flatsided="true"
         sodipodi:sides="6"
         sodipodi:cx="-73.386642"
         sodipodi:cy="6.7661443"
         sodipodi:r1="133.84348"
         sodipodi:r2="115.91184"
         sodipodi:arg1="0.52359878"
         sodipodi:arg2="1.0471976"
         inkscape:rounded="0"
         inkscape:randomized="0"
         transform="matrix(0.93861075,0,0,0.93861075,198.12552,122.31229)"
         inkscape:label="clip-path"
         d="m 30.807333,80.4532 -92.476102,53.3911 a 23.435747,23.435747 2.521989e-7 0 1 -23.435748,0 L -177.58062,80.453199 a 23.435747,23.435747 60 0 1 -11.71787,-20.295953 l 0,-106.782205 a 23.435747,23.435747 120 0 1 11.71787,-20.295952 l 92.476104,-53.391099 a 23.435747,23.435747 2.5219888e-7 0 1 23.435748,0 l 92.476102,53.3911 a 23.435747,23.435747 60 0 1 11.717874,20.295952 l -10e-7,106.782205 A 23.435747,23.435747 120 0 1 30.807333,80.4532 Z"
         inkscape:path-effect="#path-effect34" /></clipPath><clipPath
       clipPathUnits="userSpaceOnUse"
       id="clipPath35"><path
         sodipodi:type="star"
         style="display:inline;opacity:1;mix-blend-mode:normal;fill:none;fill-opacity:1;stroke:none;stroke-width:0.132292"
         id="path35"
         inkscape:flatsided="true"
         sodipodi:sides="6"
         sodipodi:cx="-73.386642"
         sodipodi:cy="6.7661443"
         sodipodi:r1="133.84348"
         sodipodi:r2="115.91184"
         sodipodi:arg1="0.52359878"
         sodipodi:arg2="1.0471976"
         inkscape:rounded="0"
         inkscape:randomized="0"
         transform="matrix(0.93861075,0,0,0.93861075,198.12552,122.31229)"
         inkscape:label="clip-path"
         d="m 30.807333,80.4532 -92.476102,53.3911 a 23.435747,23.435747 2.521989e-7 0 1 -23.435748,0 L -177.58062,80.453199 a 23.435747,23.435747 60 0 1 -11.71787,-20.295953 l 0,-106.782205 a 23.435747,23.435747 120 0 1 11.71787,-20.295952 l 92.476104,-53.391099 a 23.435747,23.435747 2.5219888e-7 0 1 23.435748,0 l 92.476102,53.3911 a 23.435747,23.435747 60 0 1 11.717874,20.295952 l -10e-7,106.782205 A 23.435747,23.435747 120 0 1 30.807333,80.4532 Z"
         inkscape:path-effect="#path-effect34" /></clipPath><clipPath
       clipPathUnits="userSpaceOnUse"
       id="clipPath36"><path
         sodipodi:type="star"
         style="display:inline;opacity:1;mix-blend-mode:normal;fill:none;fill-opacity:1;stroke:none;stroke-width:0.132292"
         id="path36"
         inkscape:flatsided="true"
         sodipodi:sides="6"
         sodipodi:cx="-73.386642"
         sodipodi:cy="6.7661443"
         sodipodi:r1="133.84348"
         sodipodi:r2="115.91184"
         sodipodi:arg1="0.52359878"
         sodipodi:arg2="1.0471976"
         inkscape:rounded="0"
         inkscape:randomized="0"
         transform="matrix(0.93861075,0,0,0.93861075,198.12552,122.31229)"
         inkscape:label="clip-path"
         d="m 30.807333,80.4532 -92.476102,53.3911 a 23.435747,23.435747 2.521989e-7 0 1 -23.435748,0 L -177.58062,80.453199 a 23.435747,23.435747 60 0 1 -11.71787,-20.295953 l 0,-106.782205 a 23.435747,23.435747 120 0 1 11.71787,-20.295952 l 92.476104,-53.391099 a 23.435747,23.435747 2.5219888e-7 0 1 23.435748,0 l 92.476102,53.3911 a 23.435747,23.435747 60 0 1 11.717874,20.295952 l -10e-7,106.782205 A 23.435747,23.435747 120 0 1 30.807333,80.4532 Z"
         inkscape:path-effect="#path-effect34" /></clipPath><clipPath
       clipPathUnits="userSpaceOnUse"
       id="clipPath37"><path
         sodipodi:type="star"
         style="display:inline;opacity:1;mix-blend-mode:normal;fill:none;fill-opacity:1;stroke:none;stroke-width:0.132292"
         id="path37"
         inkscape:flatsided="true"
         sodipodi:sides="6"
         sodipodi:cx="-73.386642"
         sodipodi:cy="6.7661443"
         sodipodi:r1="133.84348"
         sodipodi:r2="115.91184"
         sodipodi:arg1="0.52359878"
         sodipodi:arg2="1.0471976"
         inkscape:rounded="0"
         inkscape:randomized="0"
         transform="matrix(0.93861075,0,0,0.93861075,198.12552,122.31229)"
         inkscape:label="clip-path"
         d="m 30.807333,80.4532 -92.476102,53.3911 a 23.435747,23.435747 2.521989e-7 0 1 -23.435748,0 L -177.58062,80.453199 a 23.435747,23.435747 60 0 1 -11.71787,-20.295953 l 0,-106.782205 a 23.435747,23.435747 120 0 1 11.71787,-20.295952 l 92.476104,-53.391099 a 23.435747,23.435747 2.5219888e-7 0 1 23.435748,0 l 92.476102,53.3911 a 23.435747,23.435747 60 0 1 11.717874,20.295952 l -10e-7,106.782205 A 23.435747,23.435747 120 0 1 30.807333,80.4532 Z"
         inkscape:path-effect="#path-effect34" /></clipPath><clipPath
       clipPathUnits="userSpaceOnUse"
       id="clipPath38"><path
         sodipodi:type="star"
         style="display:inline;opacity:1;mix-blend-mode:normal;fill:none;fill-opacity:1;stroke:none;stroke-width:0.132292"
         id="path38"
         inkscape:flatsided="true"
         sodipodi:sides="6"
         sodipodi:cx="-73.386642"
         sodipodi:cy="6.7661443"
         sodipodi:r1="133.84348"
         sodipodi:r2="115.91184"
         sodipodi:arg1="0.52359878"
         sodipodi:arg2="1.0471976"
         inkscape:rounded="0"
         inkscape:randomized="0"
         transform="matrix(0.93861075,0,0,0.93861075,198.12552,122.31229)"
         inkscape:label="clip-path"
         d="m 30.807333,80.4532 -92.476102,53.3911 a 23.435747,23.435747 2.521989e-7 0 1 -23.435748,0 L -177.58062,80.453199 a 23.435747,23.435747 60 0 1 -11.71787,-20.295953 l 0,-106.782205 a 23.435747,23.435747 120 0 1 11.71787,-20.295952 l 92.476104,-53.391099 a 23.435747,23.435747 2.5219888e-7 0 1 23.435748,0 l 92.476102,53.3911 a 23.435747,23.435747 60 0 1 11.717874,20.295952 l -10e-7,106.782205 A 23.435747,23.435747 120 0 1 30.807333,80.4532 Z"
         inkscape:path-effect="#path-effect34" /></clipPath><clipPath
       clipPathUnits="userSpaceOnUse"
       id="clipPath39"><path
         sodipodi:type="star"
         style="display:inline;opacity:1;mix-blend-mode:normal;fill:none;fill-opacity:1;stroke:none;stroke-width:0.132292"
         id="path39"
         inkscape:flatsided="true"
         sodipodi:sides="6"
         sodipodi:cx="-73.386642"
         sodipodi:cy="6.7661443"
         sodipodi:r1="133.84348"
         sodipodi:r2="115.91184"
         sodipodi:arg1="0.52359878"
         sodipodi:arg2="1.0471976"
         inkscape:rounded="0"
         inkscape:randomized="0"
         transform="matrix(0.93861075,0,0,0.93861075,198.12552,122.31229)"
         inkscape:label="clip-path"
         d="m 30.807333,80.4532 -92.476102,53.3911 a 23.435747,23.435747 2.521989e-7 0 1 -23.435748,0 L -177.58062,80.453199 a 23.435747,23.435747 60 0 1 -11.71787,-20.295953 l 0,-106.782205 a 23.435747,23.435747 120 0 1 11.71787,-20.295952 l 92.476104,-53.391099 a 23.435747,23.435747 2.5219888e-7 0 1 23.435748,0 l 92.476102,53.3911 a 23.435747,23.435747 60 0 1 11.717874,20.295952 l -10e-7,106.782205 A 23.435747,23.435747 120 0 1 30.807333,80.4532 Z"
         inkscape:path-effect="#path-effect34" /></clipPath><clipPath
       clipPathUnits="userSpaceOnUse"
       id="clipPath40"><path
         sodipodi:type="star"
         style="display:inline;opacity:1;mix-blend-mode:normal;fill:none;fill-opacity:1;stroke:none;stroke-width:0.132292"
         id="path40"
         inkscape:flatsided="true"
         sodipodi:sides="6"
         sodipodi:cx="-73.386642"
         sodipodi:cy="6.7661443"
         sodipodi:r1="133.84348"
         sodipodi:r2="115.91184"
         sodipodi:arg1="0.52359878"
         sodipodi:arg2="1.0471976"
         inkscape:rounded="0"
         inkscape:randomized="0"
         transform="matrix(0.93861075,0,0,0.93861075,198.12552,122.31229)"
         inkscape:label="clip-path"
         d="m 30.807333,80.4532 -92.476102,53.3911 a 23.435747,23.435747 2.521989e-7 0 1 -23.435748,0 L -177.58062,80.453199 a 23.435747,23.435747 60 0 1 -11.71787,-20.295953 l 0,-106.782205 a 23.435747,23.435747 120 0 1 11.71787,-20.295952 l 92.476104,-53.391099 a 23.435747,23.435747 2.5219888e-7 0 1 23.435748,0 l 92.476102,53.3911 a 23.435747,23.435747 60 0 1 11.717874,20.295952 l -10e-7,106.782205 A 23.435747,23.435747 120 0 1 30.807333,80.4532 Z"
         inkscape:path-effect="#path-effect34" /></clipPath><clipPath
       clipPathUnits="userSpaceOnUse"
       id="clipPath41"><path
         sodipodi:type="star"
         style="display:inline;opacity:1;mix-blend-mode:normal;fill:none;fill-opacity:1;stroke:none;stroke-width:0.132292"
         id="path41"
         inkscape:flatsided="true"
         sodipodi:sides="6"
         sodipodi:cx="-73.386642"
         sodipodi:cy="6.7661443"
         sodipodi:r1="133.84348"
         sodipodi:r2="115.91184"
         sodipodi:arg1="0.52359878"
         sodipodi:arg2="1.0471976"
         inkscape:rounded="0"
         inkscape:randomized="0"
         transform="matrix(0.93861075,0,0,0.93861075,198.12552,122.31229)"
         inkscape:label="clip-path"
         d="m 30.807333,80.4532 -92.476102,53.3911 a 23.435747,23.435747 2.521989e-7 0 1 -23.435748,0 L -177.58062,80.453199 a 23.435747,23.435747 60 0 1 -11.71787,-20.295953 l 0,-106.782205 a 23.435747,23.435747 120 0 1 11.71787,-20.295952 l 92.476104,-53.391099 a 23.435747,23.435747 2.5219888e-7 0 1 23.435748,0 l 92.476102,53.3911 a 23.435747,23.435747 60 0 1 11.717874,20.295952 l -10e-7,106.782205 A 23.435747,23.435747 120 0 1 30.807333,80.4532 Z"
         inkscape:path-effect="#path-effect34" /></clipPath><clipPath
       clipPathUnits="userSpaceOnUse"
       id="clipPath42"><path
         sodipodi:type="star"
         style="display:inline;opacity:1;mix-blend-mode:normal;fill:none;fill-opacity:1;stroke:none;stroke-width:0.132292"
         id="path42"
         inkscape:flatsided="true"
         sodipodi:sides="6"
         sodipodi:cx="-73.386642"
         sodipodi:cy="6.7661443"
         sodipodi:r1="133.84348"
         sodipodi:r2="115.91184"
         sodipodi:arg1="0.52359878"
         sodipodi:arg2="1.0471976"
         inkscape:rounded="0"
         inkscape:randomized="0"
         transform="matrix(0.93861075,0,0,0.93861075,198.12552,122.31229)"
         inkscape:label="clip-path"
         d="m 30.807333,80.4532 -92.476102,53.3911 a 23.435747,23.435747 2.521989e-7 0 1 -23.435748,0 L -177.58062,80.453199 a 23.435747,23.435747 60 0 1 -11.71787,-20.295953 l 0,-106.782205 a 23.435747,23.435747 120 0 1 11.71787,-20.295952 l 92.476104,-53.391099 a 23.435747,23.435747 2.5219888e-7 0 1 23.435748,0 l 92.476102,53.3911 a 23.435747,23.435747 60 0 1 11.717874,20.295952 l -10e-7,106.782205 A 23.435747,23.435747 120 0 1 30.807333,80.4532 Z"
         inkscape:path-effect="#path-effect34" /></clipPath><clipPath
       clipPathUnits="userSpaceOnUse"
       id="clipPath43"><path
         sodipodi:type="star"
         style="display:inline;opacity:1;mix-blend-mode:normal;fill:none;fill-opacity:1;stroke:none;stroke-width:0.132292"
         id="path43"
         inkscape:flatsided="true"
         sodipodi:sides="6"
         sodipodi:cx="-73.386642"
         sodipodi:cy="6.7661443"
         sodipodi:r1="133.84348"
         sodipodi:r2="115.91184"
         sodipodi:arg1="0.52359878"
         sodipodi:arg2="1.0471976"
         inkscape:rounded="0"
         inkscape:randomized="0"
         transform="matrix(0.93861075,0,0,0.93861075,198.12552,122.31229)"
         inkscape:label="clip-path"
         d="m 30.807333,80.4532 -92.476102,53.3911 a 23.435747,23.435747 2.521989e-7 0 1 -23.435748,0 L -177.58062,80.453199 a 23.435747,23.435747 60 0 1 -11.71787,-20.295953 l 0,-106.782205 a 23.435747,23.435747 120 0 1 11.71787,-20.295952 l 92.476104,-53.391099 a 23.435747,23.435747 2.5219888e-7 0 1 23.435748,0 l 92.476102,53.3911 a 23.435747,23.435747 60 0 1 11.717874,20.295952 l -10e-7,106.782205 A 23.435747,23.435747 120 0 1 30.807333,80.4532 Z"
         inkscape:path-effect="#path-effect34" /></clipPath><clipPath
       clipPathUnits="userSpaceOnUse"
       id="clipPath44"><path
         sodipodi:type="star"
         style="display:inline;opacity:1;mix-blend-mode:normal;fill:none;fill-opacity:1;stroke:none;stroke-width:0.132292"
         id="path44"
         inkscape:flatsided="true"
         sodipodi:sides="6"
         sodipodi:cx="-73.386642"
         sodipodi:cy="6.7661443"
         sodipodi:r1="133.84348"
         sodipodi:r2="115.91184"
         sodipodi:arg1="0.52359878"
         sodipodi:arg2="1.0471976"
         inkscape:rounded="0"
         inkscape:randomized="0"
         transform="matrix(0.93861075,0,0,0.93861075,198.12552,122.31229)"
         inkscape:label="clip-path"
         d="m 30.807333,80.4532 -92.476102,53.3911 a 23.435747,23.435747 2.521989e-7 0 1 -23.435748,0 L -177.58062,80.453199 a 23.435747,23.435747 60 0 1 -11.71787,-20.295953 l 0,-106.782205 a 23.435747,23.435747 120 0 1 11.71787,-20.295952 l 92.476104,-53.391099 a 23.435747,23.435747 2.5219888e-7 0 1 23.435748,0 l 92.476102,53.3911 a 23.435747,23.435747 60 0 1 11.717874,20.295952 l -10e-7,106.782205 A 23.435747,23.435747 120 0 1 30.807333,80.4532 Z"
         inkscape:path-effect="#path-effect34" /></clipPath><clipPath
       clipPathUnits="userSpaceOnUse"
       id="clipPath45"><path
         sodipodi:type="star"
         style="display:inline;opacity:1;mix-blend-mode:normal;fill:none;fill-opacity:1;stroke:none;stroke-width:0.132292"
         id="path45"
         inkscape:flatsided="true"
         sodipodi:sides="6"
         sodipodi:cx="-73.386642"
         sodipodi:cy="6.7661443"
         sodipodi:r1="133.84348"
         sodipodi:r2="115.91184"
         sodipodi:arg1="0.52359878"
         sodipodi:arg2="1.0471976"
         inkscape:rounded="0"
         inkscape:randomized="0"
         transform="matrix(0.93861075,0,0,0.93861075,198.12552,122.31229)"
         inkscape:label="clip-path"
         d="m 30.807333,80.4532 -92.476102,53.3911 a 23.435747,23.435747 2.521989e-7 0 1 -23.435748,0 L -177.58062,80.453199 a 23.435747,23.435747 60 0 1 -11.71787,-20.295953 l 0,-106.782205 a 23.435747,23.435747 120 0 1 11.71787,-20.295952 l 92.476104,-53.391099 a 23.435747,23.435747 2.5219888e-7 0 1 23.435748,0 l 92.476102,53.3911 a 23.435747,23.435747 60 0 1 11.717874,20.295952 l -10e-7,106.782205 A 23.435747,23.435747 120 0 1 30.807333,80.4532 Z"
         inkscape:path-effect="#path-effect34" /></clipPath></defs><g
     inkscape:label="Layer 1"
     inkscape:groupmode="layer"
     id="layer1"><path
       sodipodi:type="star"
       style="display:inline;mix-blend-mode:normal;fill:#dee8ef;fill-opacity:1;stroke:none;stroke-width:0.132292"
       id="path21"
       inkscape:flatsided="true"
       sodipodi:sides="6"
       sodipodi:cx="-73.386642"
       sodipodi:cy="6.7661443"
       sodipodi:r1="133.84348"
       sodipodi:r2="115.91184"
       sodipodi:arg1="0.52359878"
       sodipodi:arg2="1.0471976"
       inkscape:rounded="0"
       inkscape:randomized="0"
       transform="matrix(0.93861075,0,0,0.93861075,197.06719,121.78312)"
       inkscape:label="background"
       d="m 30.807333,80.4532 -92.476102,53.3911 a 23.435747,23.435747 2.521989e-7 0 1 -23.435748,0 L -177.58062,80.453199 a 23.435747,23.435747 60 0 1 -11.71787,-20.295953 l 0,-106.782205 a 23.435747,23.435747 120 0 1 11.71787,-20.295952 l 92.476104,-53.391099 a 23.435747,23.435747 2.5219888e-7 0 1 23.435748,0 l 92.476102,53.3911 a 23.435747,23.435747 60 0 1 11.717874,20.295952 l -10e-7,106.782205 A 23.435747,23.435747 120 0 1 30.807333,80.4532 Z"
       inkscape:path-effect="#path-effect21" /><path
       style="fill:#bacde2;fill-opacity:1;stroke:none;stroke-width:0.132292"
       d="m 127.4303,59.712825 -26.86617,29.626393 16.56133,-8.372676 5.88848,-5.796468 z"
       id="path32"
       clip-path="url(#clipPath45)"
       transform="translate(-1.0583333,-0.52916667)"
       inkscape:label="peak-6-shadow-left" /><path
       style="fill:#fbfbfb;fill-opacity:1;stroke:none;stroke-width:0.132292"
       d="m 170.94981,93.755574 36.34294,35.790896 -37.35502,-19.7816 z"
       id="path31"
       clip-path="url(#clipPath44)"
       transform="translate(-1.0583333,-0.52916667)"
       inkscape:label="peak-6-right" /><path
       style="fill:#fbfbfb;fill-opacity:1;stroke:none;stroke-width:0.132292"
       d="m 127.5158,59.724236 -4.81437,15.614179 -8.32757,8.848035 10.53957,35.52226 h 46.06183 l -7.80709,-22.250208 z"
       id="path30"
       clip-path="url(#clipPath43)"
       transform="translate(-1.0583333,-0.52916667)"
       inkscape:label="peak-6" /><path
       style="fill:#b8cce5;fill-opacity:1;stroke:none;stroke-width:0.132292"
       d="m 126.47485,108.12819 6.89626,-9.368507 0.91083,5.464967 2.73248,-12.361228 26.02364,21.729728 -8.5878,-15.22382 4.2939,2.47225 2.47224,4.55413 0.39035,-5.20473 1.82166,-2.992714 7.67697,-3.643307 0.39036,12.100991 3.38307,2.34212 0.65059,3.77343 2.99272,-2.8626 12.88169,4.94449 17.69608,17.17559 -0.13012,20.29844 h -84.05634 z"
       id="path29"
       clip-path="url(#clipPath42)"
       sodipodi:nodetypes="cccccccccccccccccccc"
       transform="translate(-1.0583333,-0.52916667)"
       inkscape:label="peak-6-shadow" /><path
       style="fill:#a2bdde;fill-opacity:1;stroke:none;stroke-width:0.132292"
       d="m 197.3097,119.72455 -11.86896,9.9368 -8.78079,-5.07362 -5.15156,16.44985 28.37752,3.25295 z"
       id="path46"
       sodipodi:nodetypes="cccccc"
       inkscape:label="peak-5-shadow" /><path
       style="display:inline;fill:#5d8bc7;fill-opacity:1;stroke:none;stroke-width:0.132292"
       d="m 19.274399,146.37518 42.54863,-35.61968 9.88898,5.59508 31.618721,-30.187401 2.8626,-0.13012 11.06004,-5.85532 11.32027,26.283861 11.19016,14.18288 31.87896,15.7443 17.04549,5.7252 -4.1638,-9.88898 -6.89626,-7.67697 14.83346,5.0746 4.94451,2.73249 0.52046,-12.10099 11.97086,-1.4313 16.39491,13.79252 13.40218,10.27934 0.13009,34.22107 -220.420161,-1.56141 z"
       id="path22"
       inkscape:label="peak-5"
       sodipodi:nodetypes="ccccccccccccccccccccc"
       clip-path="url(#clipPath40)"
       transform="translate(-1.0583333,-0.52916667)" /><path
       style="fill:#becbde;fill-opacity:1;stroke:none;stroke-width:0.132292"
       d="m 18.125464,126.69424 8.191634,3.32396 10.577883,2.19648 -18.033457,12.88104 z"
       id="path28"
       sodipodi:nodetypes="ccccc"
       clip-path="url(#clipPath38)"
       transform="translate(-1.0583333,-0.52916667)"
       inkscape:label="peak-4" /><path
       style="fill:#4e7dba;fill-opacity:1;stroke:none;stroke-width:0.132292"
       d="m 238.8513,156.04461 -23.18587,-0.18402 -3.12826,2.94424 -27.2342,0.73606 1.84015,26.49814 52.07621,-0.73606 z"
       id="path26"
       clip-path="url(#clipPath37)"
       transform="translate(-1.0583333,-0.52916667)"
       inkscape:label="peak-3" /><path
       style="display:inline;fill:#375c90;fill-opacity:1;stroke:none;stroke-width:0.132292"
       d="m 19.036012,143.83102 19.64783,-14.05276 12.15525,11.95056 7.3606,5.98049 6.44051,0.64405 1.28813,-2.02417 10.76486,0.27603 13.52508,-7.08458 13.893128,9.20075 38.18309,10.76487 -0.55231,17.18843 -122.662881,-0.27601 z"
       id="path23"
       sodipodi:nodetypes="ccccccccccccc"
       inkscape:label="peak-2-shadow"
       clip-path="url(#clipPath39)"
       transform="translate(-1.0583333,-0.52916667)" /><path
       style="fill:#294870;fill-opacity:1;stroke:none;stroke-width:0.132292"
       d="m 18.737015,143.52033 19.96299,-13.73931 3.978751,19.26933 7.221559,-8.91309 3.578248,9.17333 10.799808,20.23337 -45.411237,7.28662 z"
       id="path24"
       clip-path="url(#clipPath36)"
       sodipodi:nodetypes="cccccccc"
       transform="translate(-1.0583333,-0.52916667)"
       inkscape:label="peak-2" /><path
       style="fill:#2d5280;fill-opacity:1;stroke:none;stroke-width:0.132292"
       d="m 158.67121,145.31217 30.13024,13.30187 4.03366,2.99271 39.06319,18.39673 -2.6301,8.92809 -94.46578,-3.77343 z"
       id="path25"
       clip-path="url(#clipPath35)"
       sodipodi:nodetypes="ccccccc"
       transform="translate(-1.0583333,-0.52916667)"
       inkscape:label="peak-1-shadow-right" /><path
       style="display:inline;mix-blend-mode:normal;fill:#233b61;fill-opacity:1;stroke:none"
       d="m 19.207799,247.99982 c -6.662807,-1.04487 -1.258593,-80.29491 -0.764019,-80.29491 5.91709,-1.21544 14.50537,-2.98198 21.92535,-9.18446 0.54751,-0.65971 1.31982,-1.19946 1.71624,-1.19946 0.39643,0 3.03623,-1.7747 5.86622,-3.94377 2.83,-2.16908 5.39379,-3.94377 5.69733,-3.94377 0.30353,0 2.06335,1.52641 2.56128,2.32371 0.94219,1.50868 15.57506,10.29635 17.0902,10.29635 0.47551,0 4.28119,1.39551 8.45706,3.10112 l 7.59249,3.10113 7.26371,-2.66365 c 3.99504,-1.46501 12.05539,-4.31075 17.91189,-6.32388 5.8565,-2.01312 13.48769,-4.74533 16.95821,-6.07157 8.8998,-3.40101 25.81428,-9.33355 27.1466,-9.52133 1.17852,-0.16611 7.2709,10.33257 8.834,15.22317 0.61579,1.92667 2.22435,3.74523 5.32473,6.01989 2.44332,1.79259 6.75045,5.05909 9.57141,7.25888 l 5.129,3.99963 22.47738,0.41544 c 12.36256,0.22849 24.01149,0.85234 25.92966,0.93041 l 4.74038,0.19294 c -1.34438,25.52206 -0.12003,49.6216 -14.59216,61.69783 -44.44595,37.0878 -150.346108,17.44522 -206.836961,8.5863 z"
       id="path3-7"
       sodipodi:nodetypes="csssssssscssssssscssccc"
       inkscape:label="peak-1"
       clip-path="url(#clipPath34)"
       transform="translate(-1.0583333,1.0583333)" /></g></svg>
